<?xml version="1.0" standalone="no"?>
<svg version="1.0" xmlns="http://www.w3.org/2000/svg"
 width="3333.000000pt" height="3333.000000pt" viewBox="0 0 3333.000000 3333.000000"
 preserveAspectRatio="xMidYMid meet">

<g transform="translate(0.000000,3333.000000) scale(0.100000,-0.100000)"
fill="#000000" stroke="none">
<path d="M16025 33299 c-2368 -95 -4719 -705 -6830 -1774 -1937 -981 -3635
-2300 -5071 -3941 -1134 -1294 -2034 -2714 -2711 -4274 -372 -855 -681 -1772
-922 -2736 -100 -400 -217 -946 -227 -1059 -5 -59 -5 -59 11 -33 8 15 43 101
76 190 95 257 290 642 597 1178 546 956 851 1368 1472 1991 447 447 878 812
1345 1138 562 392 959 592 1799 906 548 204 889 309 1461 449 378 93 381 94
485 90 58 -3 335 -11 615 -19 557 -17 792 -28 1075 -51 807 -65 1356 -199
2440 -594 694 -253 965 -391 2390 -1217 190 -110 419 -242 510 -293 313 -177
684 -417 1440 -931 1129 -768 1347 -907 1715 -1092 116 -58 223 -116 238 -127
l28 -22 -37 -66 c-21 -37 -112 -188 -204 -337 -632 -1026 -1025 -1872 -1630
-3515 -593 -1609 -1143 -2810 -1753 -3825 -191 -319 -277 -455 -287 -455 -12
0 -140 102 -270 215 -131 113 -287 237 -550 436 -364 276 -548 410 -1656 1206
-170 121 -424 306 -564 410 -333 247 -748 542 -1255 893 -515 356 -748 520
-1190 834 -934 666 -2134 1371 -2563 1507 -70 23 -221 72 -337 109 -115 37
-257 77 -315 89 -539 107 -1319 89 -1709 -39 -276 -90 -684 -320 -961 -541
-137 -109 -345 -317 -450 -449 -242 -304 -378 -579 -489 -984 -125 -454 -170
-904 -142 -1411 24 -436 57 -719 131 -1100 27 -137 63 -342 80 -455 50 -321
75 -427 150 -618 151 -389 490 -870 971 -1378 813 -861 2003 -1622 3200 -2047
786 -280 1476 -390 2349 -374 762 14 1272 104 1885 332 469 175 736 304 1350
655 666 380 811 483 1130 804 256 257 382 414 850 1056 277 380 418 555 442
546 12 -5 378 -257 593 -409 106 -75 188 -152 206 -195 27 -63 2 -114 -158
-314 -219 -275 -408 -488 -693 -777 -698 -711 -1280 -1151 -2074 -1571 -980
-519 -1891 -808 -2896 -919 -350 -39 -499 -46 -985 -46 -836 1 -1221 49 -1855
230 -671 193 -1067 349 -1611 638 -459 245 -811 478 -1120 743 -82 71 -195
165 -249 209 -308 250 -503 426 -868 785 -515 505 -753 811 -1147 1470 -174
290 -288 465 -367 562 -139 170 -364 624 -593 1193 -98 244 -128 301 -147 282
-8 -9 15 -191 57 -442 214 -1278 601 -2622 1083 -3765 561 -1331 1297 -2597
2145 -3689 817 -1053 1852 -2105 2902 -2947 1444 -1160 3081 -2054 4890 -2672
1158 -396 2217 -641 3481 -807 449 -59 1072 -80 2084 -72 1304 12 1696 39
2520 178 2816 473 5328 1574 7577 3320 455 354 810 673 1416 1274 702 695
1110 1147 1533 1700 1569 2048 2560 4221 3103 6809 93 438 226 1220 226 1317
l0 34 -21 -32 c-49 -77 -295 -655 -404 -950 -131 -355 -149 -401 -236 -603
-48 -113 -142 -324 -209 -470 -200 -435 -299 -657 -356 -797 -59 -147 -143
-318 -205 -420 -191 -314 -673 -946 -980 -1283 -314 -346 -1157 -980 -1884
-1417 -286 -171 -951 -538 -1070 -589 -327 -141 -1092 -384 -1210 -384 -43 0
-216 -30 -495 -85 -272 -53 -410 -72 -640 -85 -233 -13 -1062 -13 -1286 1
-178 10 -214 15 -444 62 -69 14 -213 38 -320 52 -332 44 -423 63 -565 117 -71
28 -258 94 -415 148 -1261 434 -2284 897 -3090 1400 -748 467 -2800 1837
-3238 2162 -295 218 -494 327 -682 373 -63 15 -110 32 -117 42 -28 37 5 101
272 528 371 595 573 965 822 1505 249 540 481 1117 806 2010 254 698 492 1303
662 1684 407 917 1040 2127 1245 2384 66 82 101 82 235 4 93 -55 265 -186 466
-354 527 -441 1076 -844 1474 -1083 293 -175 626 -414 1438 -1033 89 -68 250
-182 357 -255 242 -162 511 -354 785 -557 286 -213 548 -400 902 -646 321
-223 478 -336 698 -504 307 -234 633 -424 1180 -691 582 -283 1098 -481 1420
-546 76 -15 143 -18 425 -18 534 0 842 45 1163 169 315 122 570 297 878 605
302 302 393 431 599 843 176 355 225 498 262 768 18 135 18 1503 0 1680 -45
434 -212 943 -499 1520 -179 361 -362 654 -652 1039 -816 1088 -1734 1782
-3116 2358 -753 314 -1302 472 -1875 539 -188 21 -661 30 -890 15 -880 -57
-1336 -184 -2184 -608 -271 -136 -430 -224 -616 -340 -431 -271 -1145 -825
-1474 -1143 -201 -194 -567 -659 -742 -942 -29 -48 -90 -153 -134 -233 -91
-166 -125 -215 -150 -215 -46 0 -786 555 -815 611 -23 44 -18 71 26 139 131
203 480 591 999 1111 593 594 802 771 1292 1098 1431 953 3084 1387 4993 1312
1254 -50 1803 -189 2840 -720 712 -365 1114 -638 1619 -1100 187 -171 744
-734 879 -888 345 -396 534 -672 1085 -1588 369 -613 482 -787 566 -866 37
-37 53 -62 71 -115 13 -38 82 -204 154 -368 158 -361 281 -666 354 -882 86
-252 115 -294 109 -159 -3 76 -110 971 -143 1200 -183 1272 -596 2706 -1159
4025 -186 435 -469 1022 -675 1400 -1548 2832 -3919 5182 -6775 6713 -2354
1262 -5235 1976 -7930 1965 -195 0 -440 -5 -545 -9z"/>
</g>
</svg>
