<svg version="1.1" id="Layer_1" xmlns="http://www.w3.org/2000/svg" xmlns:xlink="http://www.w3.org/1999/xlink" x="0px" y="0px"
	 width="100%" viewBox="0 0 1000 1000" enable-background="new 0 0 0 10000" xml:space="preserve">
<path fill="#FFFFFF" opacity="1.000000" stroke="none" 
	d="
M657.000000,1001.000000 
	C439.500000,1001.000000 222.500000,1000.988770 5.500045,1001.093506 
	C1.750781,1001.095337 0.905755,1000.249084 0.906896,996.500000 
	C1.007416,666.166687 1.007416,335.833344 0.906896,5.500028 
	C0.905755,1.750898 1.750897,0.905753 5.500028,0.906894 
	C335.833344,1.007430 666.166687,1.007430 996.500000,0.906894 
	C1000.249084,0.905753 1001.094238,1.750897 1001.093140,5.500028 
	C1000.992615,335.833344 1000.992615,666.166687 1001.093140,996.500000 
	C1001.094299,1000.249084 1000.249573,1001.098389 996.499878,1001.094543 
	C883.500000,1000.978455 770.500000,1001.000000 657.000000,1001.000000 
z"/>
<path fill="#02FF01" opacity="1.000000" stroke="none" 
	d="
M722.976440,142.007080 
	C764.782898,134.867706 804.673706,139.675125 843.062622,156.778305 
	C859.699951,164.190582 874.840454,173.934006 889.088989,185.244507 
	C896.906189,191.449860 905.180908,197.118225 911.443848,205.002090 
	C934.996948,234.651016 953.288269,266.849548 960.076904,304.734955 
	C970.665955,363.829468 958.248047,417.566406 922.877991,465.982910 
	C910.324646,483.166687 894.306152,497.109467 879.054321,511.749512 
	C828.807739,559.980347 778.538818,608.187927 728.313904,656.441284 
	C697.129150,686.401917 660.167114,704.832520 617.547607,711.786621 
	C533.933411,725.429626 448.403809,683.524658 407.191101,609.092651 
	C393.273804,583.957336 384.716125,557.119751 382.210938,528.624695 
	C378.694244,488.624512 385.886444,450.503204 404.700562,414.770203 
	C405.885162,412.520294 407.266724,411.581451 409.629120,411.476227 
	C430.500214,410.546448 449.621338,415.948456 467.200195,427.154236 
	C469.180389,428.416504 468.808594,429.394958 467.881836,431.059540 
	C453.691620,456.546478 447.648010,484.046997 450.173370,512.922302 
	C454.038055,557.110840 474.127838,592.771301 510.047546,618.981689 
	C538.368652,639.647339 570.494202,648.374451 605.295471,645.849609 
	C639.174438,643.391724 668.966431,630.517090 693.661682,606.964783 
	C739.723938,563.034302 785.609314,518.917847 831.463623,474.770111 
	C843.092529,463.574005 855.450195,453.073395 865.478516,440.290680 
	C883.196777,417.706146 893.488770,392.230438 896.088867,363.542267 
	C899.772278,322.900787 888.198608,287.058502 862.070923,256.096130 
	C840.343994,230.348984 812.625671,214.014725 779.347656,208.053955 
	C729.027954,199.040649 685.595947,212.976257 648.893860,248.402969 
	C629.951538,266.686951 610.919983,284.878448 591.954590,303.138550 
	C590.295105,304.736359 589.071838,306.031860 586.609070,303.926086 
	C572.045044,291.473206 556.050415,281.112366 538.219727,271.846954 
	C540.574829,269.658630 542.590942,267.823395 544.565674,265.944672 
	C572.086853,239.761490 598.685730,212.583878 627.158875,187.434235 
	C653.158447,164.469437 683.746460,150.154388 717.683777,143.012619 
	C719.301514,142.672180 720.923828,142.353317 722.976440,142.007080 
z"/>
<path fill="#02FF01" opacity="1.000000" stroke="none" 
	d="
M307.854858,860.909180 
	C286.556824,866.837646 265.260864,869.864014 243.565369,868.874634 
	C194.270889,866.626648 150.882889,849.468201 114.035965,816.436401 
	C80.906670,786.737122 59.886848,749.918518 50.547146,706.498962 
	C45.797268,684.417175 44.869381,662.152710 47.691494,639.622437 
	C54.221714,587.488708 78.473930,545.204529 116.491409,509.512787 
	C166.536133,462.529541 215.715683,414.623474 265.166138,367.009186 
	C281.834290,350.959930 298.327515,334.779846 318.402954,322.826996 
	C343.952820,307.614685 371.370087,298.129883 400.972321,294.880554 
	C442.101379,290.365906 481.320129,297.064514 517.839539,316.374725 
	C572.554138,345.305969 607.626526,390.185516 622.925415,450.240234 
	C628.464478,471.983459 629.945435,494.179016 627.879639,516.483459 
	C625.722351,539.774719 619.770020,562.159607 610.011475,583.483276 
	C609.077332,585.524536 608.032166,586.356873 605.512634,586.271240 
	C585.489807,585.591248 566.237183,580.949463 547.098816,575.516235 
	C543.554016,574.509827 544.744080,572.989807 545.804565,570.944763 
	C553.869202,555.392151 559.011536,538.820557 560.821289,521.486877 
	C564.554260,485.733917 556.708679,452.538086 536.133972,422.876862 
	C513.092285,389.659088 481.385803,368.988007 441.580841,362.290253 
	C395.698456,354.569885 354.250854,365.862061 320.025360,397.631378 
	C275.214508,439.226379 231.454819,481.957703 187.450424,524.415222 
	C174.633316,536.781799 161.097656,548.432800 149.397125,561.948059 
	C132.675644,581.263000 121.687096,603.504700 117.176453,628.521973 
	C110.352760,666.368103 116.537773,702.123413 137.712418,734.595703 
	C159.908585,768.634644 191.085526,790.043274 231.002197,797.984070 
	C273.923889,806.522766 312.984558,797.055298 347.796234,770.743591 
	C362.839050,759.373718 375.345459,745.119446 389.140045,732.320862 
	C399.032257,723.142944 408.661499,713.678284 418.277954,704.209351 
	C420.186432,702.330139 421.298248,702.065979 423.487885,703.918396 
	C437.344757,715.642029 452.275208,725.822083 468.443054,734.109070 
	C471.127533,735.484985 471.324585,736.239990 469.038483,738.409790 
	C440.520874,765.477234 412.484070,793.064697 383.531158,819.655579 
	C361.983154,839.445618 336.215057,852.343506 307.854858,860.909180 
z"/>
</svg>