<svg width="36" height="36" viewBox="0 0 36 36" fill="none" xmlns="http://www.w3.org/2000/svg">
<g id="download button">
<path id="Vector" fill-rule="evenodd" clip-rule="evenodd" d="M18 3.375C18.2984 3.375 18.5845 3.49353 18.7955 3.7045C19.0065 3.91548 19.125 4.20163 19.125 4.5V22.035L23.955 17.205C24.058 17.0945 24.1822 17.0058 24.3202 16.9443C24.4582 16.8828 24.6072 16.8498 24.7582 16.8471C24.9093 16.8444 25.0593 16.8722 25.1994 16.9288C25.3395 16.9854 25.4667 17.0696 25.5736 17.1764C25.6804 17.2833 25.7646 17.4105 25.8212 17.5506C25.8778 17.6907 25.9056 17.8407 25.9029 17.9918C25.9002 18.1428 25.8672 18.2918 25.8057 18.4298C25.7442 18.5678 25.6555 18.692 25.545 18.795L18.795 25.545C18.5841 25.7557 18.2981 25.874 18 25.874C17.7019 25.874 17.4159 25.7557 17.205 25.545L10.455 18.795C10.3445 18.692 10.2558 18.5678 10.1943 18.4298C10.1328 18.2918 10.0998 18.1428 10.0971 17.9918C10.0944 17.8407 10.1222 17.6907 10.1788 17.5506C10.2354 17.4105 10.3196 17.2833 10.4264 17.1764C10.5333 17.0696 10.6605 16.9854 10.8006 16.9288C10.9407 16.8722 11.0907 16.8444 11.2418 16.8471C11.3928 16.8498 11.5418 16.8828 11.6798 16.9443C11.8178 17.0058 11.942 17.0945 12.045 17.205L16.875 22.035V4.5C16.875 4.20163 16.9935 3.91548 17.2045 3.7045C17.4155 3.49353 17.7016 3.375 18 3.375ZM4.5 23.625C4.79837 23.625 5.08452 23.7435 5.2955 23.9545C5.50647 24.1655 5.625 24.4516 5.625 24.75V28.125C5.625 28.7217 5.86205 29.294 6.28401 29.716C6.70597 30.1379 7.27826 30.375 7.875 30.375H28.125C28.7217 30.375 29.294 30.1379 29.716 29.716C30.1379 29.294 30.375 28.7217 30.375 28.125V24.75C30.375 24.4516 30.4935 24.1655 30.7045 23.9545C30.9155 23.7435 31.2016 23.625 31.5 23.625C31.7984 23.625 32.0845 23.7435 32.2955 23.9545C32.5065 24.1655 32.625 24.4516 32.625 24.75V28.125C32.625 29.3185 32.1509 30.4631 31.307 31.307C30.4631 32.1509 29.3185 32.625 28.125 32.625H7.875C6.68153 32.625 5.53693 32.1509 4.69302 31.307C3.84911 30.4631 3.375 29.3185 3.375 28.125V24.75C3.375 24.4516 3.49353 24.1655 3.7045 23.9545C3.91548 23.7435 4.20163 23.625 4.5 23.625Z" fill="black"/>
</g>
</svg>
