<svg width="37" height="36" viewBox="0 0 37 36" fill="none" xmlns="http://www.w3.org/2000/svg">
<g clip-path="url(#clip0_148_5554)">
<path d="M12.875 10.125H30.875M12.875 18H30.875M12.875 25.875H30.875M6.125 10.125H6.1355V10.137H6.125V10.125ZM6.6875 10.125C6.6875 10.2742 6.62824 10.4173 6.52275 10.5227C6.41726 10.6282 6.27418 10.6875 6.125 10.6875C5.97582 10.6875 5.83274 10.6282 5.72725 10.5227C5.62176 10.4173 5.5625 10.2742 5.5625 10.125C5.5625 9.97582 5.62176 9.83274 5.72725 9.72725C5.83274 9.62176 5.97582 9.5625 6.125 9.5625C6.27418 9.5625 6.41726 9.62176 6.52275 9.72725C6.62824 9.83274 6.6875 9.97582 6.6875 10.125ZM6.125 18H6.1355V18.012H6.125V18ZM6.6875 18C6.6875 18.1492 6.62824 18.2923 6.52275 18.3977C6.41726 18.5032 6.27418 18.5625 6.125 18.5625C5.97582 18.5625 5.83274 18.5032 5.72725 18.3977C5.62176 18.2923 5.5625 18.1492 5.5625 18C5.5625 17.8508 5.62176 17.7077 5.72725 17.6023C5.83274 17.4968 5.97582 17.4375 6.125 17.4375C6.27418 17.4375 6.41726 17.4968 6.52275 17.6023C6.62824 17.7077 6.6875 17.8508 6.6875 18ZM6.125 25.875H6.1355V25.887H6.125V25.875ZM6.6875 25.875C6.6875 26.0242 6.62824 26.1673 6.52275 26.2727C6.41726 26.3782 6.27418 26.4375 6.125 26.4375C5.97582 26.4375 5.83274 26.3782 5.72725 26.2727C5.62176 26.1673 5.5625 26.0242 5.5625 25.875C5.5625 25.7258 5.62176 25.5827 5.72725 25.4773C5.83274 25.3718 5.97582 25.3125 6.125 25.3125C6.27418 25.3125 6.41726 25.3718 6.52275 25.4773C6.62824 25.5827 6.6875 25.7258 6.6875 25.875Z" stroke="black" stroke-width="1.5" stroke-linecap="round" stroke-linejoin="round"/>
<g clip-path="url(#clip1_148_5554)">
<path d="M35.4535 4.625C35.4535 3.3825 34.404 2.375 33.1095 2.375C32.142 2.375 31.311 2.938 30.9535 3.7415C30.596 2.938 29.765 2.375 28.797 2.375C27.5035 2.375 26.4535 3.3825 26.4535 4.625C26.4535 8.235 30.9535 10.625 30.9535 10.625C30.9535 10.625 35.4535 8.235 35.4535 4.625Z" stroke="black" stroke-width="1.5" stroke-linecap="round" stroke-linejoin="round"/>
</g>
</g>
<defs>
<clipPath id="clip0_148_5554">
<rect width="36" height="36" fill="white" transform="translate(0.5)"/>
</clipPath>
<clipPath id="clip1_148_5554">
<rect width="12" height="12" fill="white" transform="translate(24.9535 0.5)"/>
</clipPath>
</defs>
</svg>
