<svg width="36" height="36" viewBox="0 0 36 36" fill="none" xmlns="http://www.w3.org/2000/svg">
<g clip-path="url(#clip0_423_1948)">
<path d="M12.375 10.125H30.375M12.375 18H30.375M12.375 25.875H30.375M5.625 10.125H5.6355V10.137H5.625V10.125ZM6.1875 10.125C6.1875 10.2742 6.12824 10.4173 6.02275 10.5227C5.91726 10.6282 5.77418 10.6875 5.625 10.6875C5.47582 10.6875 5.33274 10.6282 5.22725 10.5227C5.12176 10.4173 5.0625 10.2742 5.0625 10.125C5.0625 9.97582 5.12176 9.83274 5.22725 9.72725C5.33274 9.62176 5.47582 9.5625 5.625 9.5625C5.77418 9.5625 5.91726 9.62176 6.02275 9.72725C6.12824 9.83274 6.1875 9.97582 6.1875 10.125ZM5.625 18H5.6355V18.012H5.625V18ZM6.1875 18C6.1875 18.1492 6.12824 18.2923 6.02275 18.3977C5.91726 18.5032 5.77418 18.5625 5.625 18.5625C5.47582 18.5625 5.33274 18.5032 5.22725 18.3977C5.12176 18.2923 5.0625 18.1492 5.0625 18C5.0625 17.8508 5.12176 17.7077 5.22725 17.6023C5.33274 17.4968 5.47582 17.4375 5.625 17.4375C5.77418 17.4375 5.91726 17.4968 6.02275 17.6023C6.12824 17.7077 6.1875 17.8508 6.1875 18ZM5.625 25.875H5.6355V25.887H5.625V25.875ZM6.1875 25.875C6.1875 26.0242 6.12824 26.1673 6.02275 26.2727C5.91726 26.3782 5.77418 26.4375 5.625 26.4375C5.47582 26.4375 5.33274 26.3782 5.22725 26.2727C5.12176 26.1673 5.0625 26.0242 5.0625 25.875C5.0625 25.7258 5.12176 25.5827 5.22725 25.4773C5.33274 25.3718 5.47582 25.3125 5.625 25.3125C5.77418 25.3125 5.91726 25.3718 6.02275 25.4773C6.12824 25.5827 6.1875 25.7258 6.1875 25.875Z" stroke="#01FF00" stroke-width="1.5" stroke-linecap="round" stroke-linejoin="round"/>
<path d="M34.9535 4.625C34.9535 3.3825 33.904 2.375 32.6095 2.375C31.642 2.375 30.811 2.938 30.4535 3.7415C30.096 2.938 29.265 2.375 28.297 2.375C27.0035 2.375 25.9535 3.3825 25.9535 4.625C25.9535 8.235 30.4535 10.625 30.4535 10.625C30.4535 10.625 34.9535 8.235 34.9535 4.625Z" fill="#01FF00" stroke="#01FF00" stroke-width="1.5" stroke-linecap="round" stroke-linejoin="round"/>
</g>
<defs>
<clipPath id="clip0_423_1948">
<rect width="36" height="36" fill="white"/>
</clipPath>
</defs>
</svg>
