<svg width="36" height="36" viewBox="0 0 36 36" fill="none" xmlns="http://www.w3.org/2000/svg">
<g id="share button">
<path id="Vector" fill-rule="evenodd" clip-rule="evenodd" d="M23.625 6.75001C23.6249 5.70394 23.9893 4.69053 24.6554 3.88399C25.3215 3.07745 26.2479 2.52819 27.2751 2.33062C28.3024 2.13306 29.3663 2.29955 30.2841 2.80146C31.2019 3.30337 31.9162 4.10935 32.3041 5.08083C32.692 6.0523 32.7294 7.12858 32.4098 8.12462C32.0902 9.12066 31.4335 9.97423 30.5527 10.5386C29.672 11.1029 28.6221 11.3428 27.5836 11.217C26.5451 11.0911 25.583 10.6074 24.8625 9.84901L12.231 16.8675C12.424 17.6102 12.424 18.3898 12.231 19.1325L24.8625 26.151C25.6174 25.3573 26.6358 24.8663 27.7269 24.7698C28.8179 24.6733 29.9067 24.9781 30.7891 25.627C31.6715 26.2759 32.287 27.2244 32.5201 28.2946C32.7532 29.3649 32.5879 30.4834 32.0553 31.4405C31.5227 32.3976 30.6593 33.1276 29.6269 33.4936C28.5946 33.8596 27.4641 33.8366 26.4476 33.4287C25.431 33.0209 24.5981 32.2563 24.105 31.2782C23.6119 30.3002 23.4924 29.1758 23.769 28.116L11.1375 21.099C10.5178 21.7515 9.71665 22.2032 8.83761 22.3958C7.95857 22.5883 7.04198 22.5129 6.20623 22.1793C5.37047 21.8457 4.65395 21.2691 4.14919 20.5241C3.64444 19.7791 3.37463 18.8999 3.37463 18C3.37463 17.1001 3.64444 16.2209 4.14919 15.4759C4.65395 14.7309 5.37047 14.1544 6.20623 13.8207C7.04198 13.4871 7.95857 13.4117 8.83761 13.6043C9.71665 13.7968 10.5178 14.2485 11.1375 14.901L23.769 7.88251C23.6731 7.51266 23.6247 7.13209 23.625 6.75001Z" fill="black"/>
</g>
</svg>
