<svg width="49" height="48" viewBox="0 0 49 48" fill="none" xmlns="http://www.w3.org/2000/svg">
<g id="Frame">
<path id="Vector" d="M17 13.5H41M17 24H41M17 34.5H41M8 13.5H8.014V13.516H8V13.5ZM8.75 13.5C8.75 13.6989 8.67098 13.8897 8.53033 14.0303C8.38968 14.171 8.19891 14.25 8 14.25C7.80109 14.25 7.61032 14.171 7.46967 14.0303C7.32902 13.8897 7.25 13.6989 7.25 13.5C7.25 13.3011 7.32902 13.1103 7.46967 12.9697C7.61032 12.829 7.80109 12.75 8 12.75C8.19891 12.75 8.38968 12.829 8.53033 12.9697C8.67098 13.1103 8.75 13.3011 8.75 13.5ZM8 24H8.014V24.016H8V24ZM8.75 24C8.75 24.1989 8.67098 24.3897 8.53033 24.5303C8.38968 24.671 8.19891 24.75 8 24.75C7.80109 24.75 7.61032 24.671 7.46967 24.5303C7.32902 24.3897 7.25 24.1989 7.25 24C7.25 23.8011 7.32902 23.6103 7.46967 23.4697C7.61032 23.329 7.80109 23.25 8 23.25C8.19891 23.25 8.38968 23.329 8.53033 23.4697C8.67098 23.6103 8.75 23.8011 8.75 24ZM8 34.5H8.014V34.516H8V34.5ZM8.75 34.5C8.75 34.6989 8.67098 34.8897 8.53033 35.0303C8.38968 35.171 8.19891 35.25 8 35.25C7.80109 35.25 7.61032 35.171 7.46967 35.0303C7.32902 34.8897 7.25 34.6989 7.25 34.5C7.25 34.3011 7.32902 34.1103 7.46967 33.9697C7.61032 33.829 7.80109 33.75 8 33.75C8.19891 33.75 8.38968 33.829 8.53033 33.9697C8.67098 34.1103 8.75 34.3011 8.75 34.5Z" stroke="black" stroke-width="1.5" stroke-linecap="round" stroke-linejoin="round"/>
</g>
</svg>
