<svg width="36" height="36" viewBox="0 0 36 36" fill="none" xmlns="http://www.w3.org/2000/svg">
<path d="M7.875 8.47962C7.875 7.19562 9.2505 6.38262 10.3755 7.00062L27.6855 16.5226C27.9501 16.6683 28.1707 16.8823 28.3244 17.1423C28.478 17.4023 28.5591 17.6988 28.5591 18.0009C28.5591 18.3029 28.478 18.5994 28.3244 18.8594C28.1707 19.1194 27.9501 19.3334 27.6855 19.4791L10.3755 28.9996C10.1186 29.1408 9.82943 29.2127 9.53634 29.2082C9.24325 29.2036 8.95641 29.1228 8.70405 28.9737C8.45169 28.8246 8.24252 28.6123 8.09715 28.3578C7.95178 28.1032 7.87522 27.8152 7.875 27.5221V8.47962Z" stroke="black" stroke-width="1.5" stroke-linecap="round" stroke-linejoin="round"/>
</svg>
