<svg width="30" height="28" viewBox="0 0 30 28" fill="none" xmlns="http://www.w3.org/2000/svg">
<path id="Vector" d="M21.2852 10.0222H28.7732L24.0017 5.24765C22.4656 3.71146 20.5521 2.60675 18.4536 2.04456C16.3551 1.48238 14.1456 1.48254 12.0471 2.04504C9.94874 2.60753 8.03539 3.71253 6.49944 5.24896C4.9635 6.78538 3.85909 8.69907 3.29725 10.7977M1.72825 25.4662V17.9782M1.72825 17.9782H9.21625M1.72825 17.9782L6.49825 22.7527C8.03442 24.2888 9.94794 25.3936 12.0464 25.9557C14.1449 26.5179 16.3544 26.5178 18.4528 25.9553C20.5512 25.3928 22.4646 24.2878 24.0005 22.7514C25.5365 21.2149 26.6409 19.3012 27.2027 17.2027M28.7732 2.53415V10.0192" stroke="black" stroke-width="1.5" stroke-linecap="round" stroke-linejoin="round"/>
</svg>
