<svg width="36" height="36" viewBox="0 0 36 36" fill="none" xmlns="http://www.w3.org/2000/svg">
<g id="volume">
<path id="Vector" d="M28.671 8.45383C29.9246 9.70742 30.919 11.1957 31.5975 12.8336C32.2759 14.4715 32.6251 16.227 32.6251 17.9998C32.6251 19.7727 32.2759 21.5282 31.5975 23.1661C30.919 24.804 29.9246 26.2922 28.671 27.5458M24.6945 12.4318C26.1711 13.9086 27.0006 15.9115 27.0006 17.9998C27.0006 20.0882 26.1711 22.091 24.6945 23.5678M10.125 12.3748L17.205 5.29483C17.3623 5.1377 17.5627 5.03071 17.7808 4.98738C17.9989 4.94406 18.2249 4.96633 18.4304 5.0514C18.6358 5.13647 18.8115 5.28051 18.9351 5.46533C19.0587 5.65016 19.1248 5.86747 19.125 6.08983V29.9098C19.1248 30.1322 19.0587 30.3495 18.9351 30.5343C18.8115 30.7192 18.6358 30.8632 18.4304 30.9483C18.2249 31.0333 17.9989 31.0556 17.7808 31.0123C17.5627 30.969 17.3623 30.862 17.205 30.7048L10.125 23.6248H6.765C5.445 23.6248 4.209 22.8643 3.858 21.5938C3.53628 20.423 3.37382 19.2141 3.375 17.9998C3.375 16.7548 3.543 15.5503 3.858 14.4058C4.209 13.1338 5.445 12.3748 6.765 12.3748H10.125Z" stroke="black" stroke-width="1.5" stroke-linecap="round" stroke-linejoin="round"/>
</g>
</svg>
